<svg xmlns="http://www.w3.org/2000/svg" viewBox="0 0 340 60" width="340" height="60">
  <defs>
    <linearGradient id="wbg" x1="0" y1="0" x2="0" y2="1">
      <stop offset="0%" stop-color="#5B9BD5"/>
      <stop offset="100%" stop-color="#3A6FA0"/>
    </linearGradient>
  </defs>
  <circle cx="28" cy="30" r="24" fill="url(#wbg)"/>
  <g transform="translate(28,30) scale(0.42)" fill="#FFFFFF">
    <path d="M-5,6 C-5.5,1 -5.5,-4 -4,-7 C-2,-9 2,-9 4,-7 C5.5,-4 5.5,1 5,6 Z"/>
    <ellipse cx="0" cy="-12" rx="2.5" ry="2.8"/>
    <path d="M0,-14.5 L1.2,-18 C0.3,-17.2 -0.3,-17.2 -1.2,-18 Z"/>
    <ellipse cx="0" cy="-8.5" rx="5.5" ry="2"/>
    <path d="M-5,-3 C-14,-5.5 -24,-8.5 -34,-9 C-37,-9 -40,-8 -42,-6.5 C-34,-3 -20,0 -5,1 Z"/>
    <path d="M-37,-9.5 L-43,-15.5 C-42,-11.5 -40,-9 -38,-8.5 Z"/>
    <path d="M-39,-9 L-48,-12.5 C-46,-9 -43,-7.5 -40.5,-7 Z"/>
    <path d="M-41,-8 L-50.5,-9 C-48.5,-6.5 -45,-5.5 -42,-5.5 Z"/>
    <path d="M-42,-7 L-50.5,-5 C-48,-4.5 -45,-4.5 -42.5,-5 Z"/>
    <path d="M-42,-6 L-48.5,-2 C-47,-3.5 -44.5,-4 -42,-4.5 Z"/>
    <path d="M-8,-2 C-14,-4 -24,-6 -30,-5.5 C-24,-3 -16,-1 -8,-0.5 Z" opacity="0.8"/>
    <path d="M5,-3 C14,-5.5 24,-8.5 34,-9 C37,-9 40,-8 42,-6.5 C34,-3 20,0 5,1 Z"/>
    <path d="M37,-9.5 L43,-15.5 C42,-11.5 40,-9 38,-8.5 Z"/>
    <path d="M39,-9 L48,-12.5 C46,-9 43,-7.5 40.5,-7 Z"/>
    <path d="M41,-8 L50.5,-9 C48.5,-6.5 45,-5.5 42,-5.5 Z"/>
    <path d="M42,-7 L50.5,-5 C48,-4.5 45,-4.5 42.5,-5 Z"/>
    <path d="M42,-6 L48.5,-2 C47,-3.5 44.5,-4 42,-4.5 Z"/>
    <path d="M8,-2 C14,-4 24,-6 30,-5.5 C24,-3 16,-1 8,-0.5 Z" opacity="0.8"/>
    <path d="M-4,6 L-8,15.5 L-3,12.5 L0,16.5 L3,12.5 L8,15.5 L4,6 Z"/>
  </g>
  <circle cx="28" cy="24.96" r="0.4" fill="#3A6FA0"/>
  <text x="66" y="32" font-family="Georgia, serif" font-weight="700" font-size="26" fill="#4A7FAF" letter-spacing="2">CONDOR</text>
  <text x="66" y="50" font-family="system-ui, sans-serif" font-weight="700" font-size="11" fill="#75AADB" letter-spacing="5">S A L U D</text>
</svg>
